<svg width="145" height="29" viewBox="0 0 145 29" fill="none" xmlns="http://www.w3.org/2000/svg">
<path d="M8.832 23.852C7.82933 23.852 6.85867 23.7347 5.92 23.5C4.98133 23.2867 4.128 22.924 3.36 22.412C2.61333 21.9 2.00533 21.2493 1.536 20.46C1.088 19.6707 0.853333 18.7107 0.832 17.58H4.128C4.128 17.6653 4.14933 17.836 4.192 18.092C4.23467 18.3267 4.34133 18.604 4.512 18.924C4.704 19.244 4.97067 19.5533 5.312 19.852C5.67467 20.1507 6.15467 20.4067 6.752 20.62C7.37067 20.812 8.13867 20.908 9.056 20.908C9.696 20.908 10.24 20.844 10.688 20.716C11.1573 20.588 11.5413 20.4173 11.84 20.204C12.16 19.9907 12.3947 19.756 12.544 19.5C12.6933 19.2227 12.768 18.956 12.768 18.7C12.768 18.1027 12.5547 17.6333 12.128 17.292C11.7227 16.9293 11.168 16.6413 10.464 16.428C9.78133 16.1933 9.024 15.9907 8.192 15.82C7.38133 15.628 6.56 15.404 5.728 15.148C4.91733 14.892 4.17067 14.5613 3.488 14.156C2.80533 13.7293 2.272 13.1853 1.888 12.524C1.52533 11.8627 1.36533 11.02 1.408 9.996C1.49333 8.99333 1.84533 8.12933 2.464 7.404C3.08267 6.67867 3.94667 6.124 5.056 5.74C6.16533 5.356 7.456 5.164 8.928 5.164C10.208 5.164 11.392 5.39867 12.48 5.868C13.5893 6.316 14.4747 6.99867 15.136 7.916C15.8187 8.812 16.16 9.964 16.16 11.372H12.992C12.992 10.7107 12.8427 10.1773 12.544 9.772C12.2453 9.34533 11.8613 9.02533 11.392 8.812C10.944 8.57733 10.464 8.428 9.952 8.364C9.44 8.27867 8.98133 8.236 8.576 8.236C7.50933 8.236 6.624 8.41733 5.92 8.78C5.23733 9.12133 4.896 9.65467 4.896 10.38C4.87467 10.9987 5.07733 11.4893 5.504 11.852C5.93067 12.1933 6.496 12.4707 7.2 12.684C7.904 12.8973 8.672 13.1 9.504 13.292C10.336 13.4627 11.168 13.6653 12 13.9C12.832 14.1347 13.5787 14.4547 14.24 14.86C14.9227 15.2653 15.456 15.7987 15.84 16.46C16.2453 17.1213 16.416 17.9853 16.352 19.052C16.3093 20.0547 15.9573 20.9187 15.296 21.644C14.6347 22.348 13.7493 22.892 12.64 23.276C11.552 23.66 10.2827 23.852 8.832 23.852ZM25.078 23.82C23.5633 23.82 22.326 23.5 21.366 22.86C20.4273 22.1987 19.7233 21.356 19.254 20.332C18.806 19.308 18.5713 18.2413 18.55 17.132C18.5287 15.8093 18.774 14.636 19.286 13.612C19.8193 12.5667 20.566 11.756 21.526 11.18C22.5073 10.5827 23.6593 10.284 24.982 10.284C26.1553 10.284 27.2113 10.54 28.15 11.052C29.0887 11.564 29.8247 12.2787 30.358 13.196C30.9127 14.1133 31.2007 15.212 31.222 16.492C31.222 16.5347 31.222 16.6627 31.222 16.876C31.222 17.068 31.222 17.2173 31.222 17.324H21.654C21.654 18.54 21.9527 19.4787 22.55 20.14C23.1687 20.78 23.99 21.1 25.014 21.1C25.8247 21.1 26.4967 20.8973 27.03 20.492C27.5847 20.0867 27.9153 19.5533 28.022 18.892H31.19C31.1047 19.8093 30.806 20.6413 30.294 21.388C29.782 22.1347 29.0887 22.732 28.214 23.18C27.3393 23.6067 26.294 23.82 25.078 23.82ZM21.75 15.852H27.958C27.9367 15.7027 27.894 15.468 27.83 15.148C27.766 14.828 27.6273 14.4973 27.414 14.156C27.2007 13.8147 26.8913 13.5267 26.486 13.292C26.0807 13.0573 25.558 12.94 24.918 12.94C24.278 12.94 23.7553 13.0467 23.35 13.26C22.9447 13.4733 22.6353 13.74 22.422 14.06C22.2087 14.38 22.0487 14.7 21.942 15.02C21.8353 15.34 21.7713 15.6173 21.75 15.852ZM33.7153 23.5V10.348H36.4993L37.0433 13.196H37.1073C37.1286 13.132 37.2033 12.9613 37.3313 12.684C37.4806 12.3853 37.7153 12.0547 38.0353 11.692C38.3766 11.3293 38.8246 11.02 39.3793 10.764C39.9553 10.4867 40.6699 10.348 41.5233 10.348C42.4619 10.348 43.2193 10.508 43.7953 10.828C44.3926 11.1267 44.8619 11.532 45.2033 12.044C45.5446 12.5347 45.7793 13.0893 45.9073 13.708C46.0566 14.3053 46.1419 14.9027 46.1633 15.5C46.2059 16.0973 46.2273 16.6413 46.2273 17.132V23.5H43.0273V17.1C43.0273 16.396 42.9526 15.756 42.8033 15.18C42.6753 14.604 42.4086 14.1347 42.0033 13.772C41.6193 13.4093 41.0113 13.228 40.1793 13.228C39.3259 13.228 38.6753 13.4307 38.2273 13.836C37.7793 14.22 37.4699 14.7107 37.2993 15.308C37.1286 15.9053 37.0433 16.5453 37.0433 17.228V23.5H33.7153ZM54.2215 23.82C52.9202 23.82 51.8642 23.5427 51.0535 22.988C50.2642 22.4333 49.6882 21.6547 49.3255 20.652C48.9628 19.6493 48.7815 18.4867 48.7815 17.164C48.7815 15.7773 48.9628 14.5827 49.3255 13.58C49.7095 12.556 50.2962 11.7667 51.0855 11.212C51.8962 10.636 52.9415 10.348 54.2215 10.348C55.0535 10.348 55.7468 10.4867 56.3015 10.764C56.8775 11.02 57.3255 11.3293 57.6455 11.692C57.9868 12.0547 58.2322 12.3853 58.3815 12.684C58.5308 12.9827 58.6162 13.164 58.6375 13.228H58.7015V5.484H62.0615V23.5H59.2455L58.7015 21.164H58.6375C58.6162 21.2067 58.5202 21.3667 58.3495 21.644C58.2002 21.9213 57.9442 22.2307 57.5815 22.572C57.2402 22.9133 56.7922 23.212 56.2375 23.468C55.6828 23.7027 55.0108 23.82 54.2215 23.82ZM55.2775 21.068C56.0882 21.068 56.7388 20.8973 57.2295 20.556C57.7415 20.2147 58.1042 19.756 58.3175 19.18C58.5522 18.5827 58.6695 17.9 58.6695 17.132C58.6695 16.3853 58.5628 15.724 58.3495 15.148C58.1362 14.5507 57.7842 14.092 57.2935 13.772C56.8242 13.4307 56.1842 13.26 55.3735 13.26C54.4988 13.26 53.8055 13.4413 53.2935 13.804C52.8028 14.1667 52.4615 14.6467 52.2695 15.244C52.0775 15.8413 51.9815 16.4707 51.9815 17.132C51.9815 17.7933 52.0668 18.4333 52.2375 19.052C52.4295 19.6493 52.7602 20.14 53.2295 20.524C53.7202 20.8867 54.4028 21.068 55.2775 21.068Z" fill="white"/>
<path fill-rule="evenodd" clip-rule="evenodd" d="M80.4999 0C88.5077 0 95 6.49188 95 14.5C95 22.5081 88.5077 29 80.4999 29C72.4918 29 66 22.5081 66 14.5C66 6.49188 72.4918 0 80.4999 0ZM79.9758 1.08503C78.3216 1.31783 76.7464 2.64703 75.5237 4.87012C75.1691 5.51495 74.8491 6.22736 74.5702 6.99657C76.2328 6.57877 78.0591 6.33246 79.9758 6.29436V1.08503ZM73.3447 7.34483C73.6915 6.25645 74.1157 5.25509 74.6053 4.36497C75.2114 3.26293 75.9308 2.31126 76.7412 1.58033C72.3341 2.86029 68.8603 6.33417 67.5803 10.7414C68.3112 9.93091 69.2628 9.21156 70.3649 8.60546C71.2551 8.11587 72.2563 7.6916 73.3447 7.34483ZM72.9965 8.5703C72.5787 10.2329 72.3324 12.0592 72.2943 13.9759H67.085C67.3177 12.3217 68.647 10.7465 70.8701 9.52389C71.5149 9.16922 72.2273 8.84921 72.9965 8.5703ZM73.3427 13.9759C73.386 11.8842 73.6871 9.92047 74.1853 8.1854C75.9204 7.68718 77.8841 7.38601 79.9758 7.34273V9.60683C79.1955 11.6045 77.604 13.1959 75.6063 13.9759H73.3427ZM72.2943 15.0241H67.085C67.3177 16.6783 68.647 18.2534 70.8701 19.4761C71.5149 19.8308 72.2273 20.1508 72.9965 20.4297C72.5787 18.7671 72.3324 16.9408 72.2943 15.0241ZM74.1853 20.8146C73.6871 19.0795 73.386 17.1158 73.3427 15.0241H75.6063C77.604 15.8041 79.1955 17.3955 79.9758 19.3932V21.6573C77.8841 21.614 75.9204 21.3128 74.1853 20.8146ZM73.3447 21.6552C72.2563 21.3084 71.2551 20.8841 70.3649 20.3945C69.2628 19.7884 68.3112 19.0691 67.5803 18.2586C68.8603 22.6658 72.3341 26.1397 76.7412 27.4196C75.9308 26.6887 75.2114 25.7371 74.6053 24.635C74.1157 23.7449 73.6915 22.7435 73.3447 21.6552ZM79.9758 27.915C78.3216 27.6822 76.7464 26.353 75.5237 24.1299C75.1691 23.4851 74.8491 22.7726 74.5702 22.0035C76.2328 22.4212 78.0591 22.6676 79.9758 22.7056V27.915ZM84.2585 27.4196C85.069 26.6887 85.7882 25.7371 86.3943 24.635C86.8837 23.7449 87.3085 22.7435 87.6551 21.6552C88.7433 21.3084 89.7445 20.8841 90.6348 20.3945C91.7368 19.7884 92.6887 19.0691 93.4195 18.2586C92.1392 22.6658 88.6657 26.1397 84.2585 27.4196ZM86.4298 22.0035C86.1507 22.7726 85.8303 23.4851 85.4758 24.1299C84.2533 26.353 82.6781 27.6822 81.0239 27.915V22.7056C82.9406 22.6676 84.7669 22.4212 86.4298 22.0035ZM88.0031 20.4297C88.7723 20.1508 89.485 19.8308 90.1295 19.4761C92.353 18.2535 93.682 16.6783 93.9147 15.0241H88.7056C88.6672 16.9408 88.4207 18.7671 88.0031 20.4297ZM87.6573 15.0241C87.6138 17.1158 87.3129 19.0795 86.8141 20.8146C85.0793 21.3128 83.1156 21.614 81.0239 21.6573V19.3948C81.804 17.3964 83.3959 15.8043 85.3941 15.0241H87.6573ZM88.7056 13.9759H93.9147C93.682 12.3217 92.353 10.7465 90.1295 9.52389C89.485 9.16922 88.7723 8.84921 88.0031 8.5703C88.4207 10.2329 88.6672 12.0592 88.7056 13.9759ZM86.8141 8.1854C87.3129 9.92047 87.6138 11.8842 87.6573 13.9759H85.3942C83.3959 13.1957 81.804 11.6036 81.0239 9.60516V7.34273C83.1156 7.38601 85.0793 7.68718 86.8141 8.1854ZM87.6551 7.34483C88.7433 7.6916 89.7445 8.11587 90.6348 8.60546C91.7368 9.21156 92.6887 9.93091 93.4195 10.7414C92.1392 6.33417 88.6657 2.86029 84.2585 1.58033C85.069 2.31126 85.7882 3.26293 86.3943 4.36497C86.8837 5.25509 87.3085 6.25645 87.6551 7.34483ZM81.0239 1.08503C82.6781 1.31783 84.2533 2.64703 85.4758 4.87012C85.8303 5.51496 86.1507 6.22736 86.4298 6.99657C84.7669 6.57877 82.9406 6.33246 81.0239 6.29436V1.08503Z" fill="white"/>
<path d="M98.76 23.5V5.484H105.896C106.429 5.484 107.005 5.50533 107.624 5.548C108.264 5.59067 108.893 5.69733 109.512 5.868C110.152 6.01733 110.728 6.27333 111.24 6.636C111.752 6.97733 112.168 7.44667 112.488 8.044C112.808 8.62 112.968 9.356 112.968 10.252C112.968 10.9347 112.829 11.564 112.552 12.14C112.296 12.716 111.816 13.196 111.112 13.58C110.408 13.9427 109.384 14.156 108.04 14.22V14.316C109.576 14.3587 110.76 14.5827 111.592 14.988C112.424 15.372 113 15.884 113.32 16.524C113.64 17.164 113.8 17.8787 113.8 18.668C113.8 19.5853 113.629 20.3427 113.288 20.94C112.968 21.5373 112.52 22.0173 111.944 22.38C111.368 22.7213 110.739 22.9773 110.056 23.148C109.373 23.2973 108.68 23.3933 107.976 23.436C107.293 23.4787 106.653 23.5 106.056 23.5H98.76ZM101.992 20.876H105.8C106.632 20.876 107.4 20.8333 108.104 20.748C108.808 20.6413 109.373 20.396 109.8 20.012C110.227 19.628 110.44 19.0307 110.44 18.22C110.44 17.3667 110.216 16.748 109.768 16.364C109.341 15.98 108.755 15.7347 108.008 15.628C107.283 15.5213 106.483 15.468 105.608 15.468H101.992V20.876ZM101.96 12.972H105.512C106.259 12.972 106.952 12.9293 107.592 12.844C108.232 12.7587 108.744 12.556 109.128 12.236C109.533 11.8947 109.736 11.3507 109.736 10.604C109.736 9.81467 109.533 9.24933 109.128 8.908C108.744 8.56667 108.232 8.35333 107.592 8.268C106.952 8.18267 106.259 8.14 105.512 8.14H101.96V12.972ZM122.266 23.82C120.816 23.82 119.589 23.532 118.586 22.956C117.605 22.38 116.869 21.5907 116.378 20.588C115.888 19.564 115.642 18.4013 115.642 17.1C115.642 15.7773 115.888 14.6147 116.378 13.612C116.869 12.588 117.605 11.788 118.586 11.212C119.589 10.636 120.826 10.348 122.298 10.348C124.453 10.348 126.085 10.9667 127.194 12.204C128.325 13.4413 128.89 15.0733 128.89 17.1C128.89 18.3587 128.656 19.5 128.186 20.524C127.717 21.548 126.992 22.3587 126.01 22.956C125.029 23.532 123.781 23.82 122.266 23.82ZM122.266 21.068C123.226 21.068 123.952 20.8653 124.442 20.46C124.954 20.0547 125.296 19.5427 125.466 18.924C125.637 18.284 125.722 17.644 125.722 17.004C125.722 16.3213 125.637 15.6707 125.466 15.052C125.296 14.4333 124.954 13.9213 124.442 13.516C123.952 13.0893 123.226 12.876 122.266 12.876C121.328 12.876 120.602 13.0893 120.09 13.516C119.6 13.9213 119.258 14.4333 119.066 15.052C118.896 15.6707 118.81 16.3213 118.81 17.004C118.81 17.644 118.896 18.284 119.066 18.924C119.258 19.5427 119.6 20.0547 120.09 20.46C120.602 20.8653 121.328 21.068 122.266 21.068ZM130 23.5L134.8 16.716L130.256 10.348H133.84L136.848 14.828L139.856 10.348H143.472L138.928 16.716L143.76 23.5H140.176L136.848 18.668L133.584 23.5H130Z" fill="white"/>
</svg>
